<?xml version="1.0" standalone="no"?>
<!DOCTYPE svg PUBLIC "-//W3C//DTD SVG 20010904//EN"
 "http://www.w3.org/TR/2001/REC-SVG-20010904/DTD/svg10.dtd">
<svg version="1.0" xmlns="http://www.w3.org/2000/svg"
 width="300.000000pt" height="292.000000pt" viewBox="0 0 300.000000 292.000000"
 preserveAspectRatio="xMidYMid meet">
<metadata>
Created by potrace 1.10, written by Peter Selinger 2001-2011
</metadata>
<g transform="translate(0.000000,292.000000) scale(0.100000,-0.100000)"
fill="#2daf57" stroke="none">
<path d="M0 2772 l0 -148 163 -74 c377 -171 658 -323 726 -393 l33 -35 45 56
c129 161 269 267 423 318 84 28 253 26 344 -4 98 -33 170 -71 265 -142 305
-226 580 -640 680 -1021 104 -401 61 -868 -115 -1248 -19 -41 -34 -75 -34 -77
0 -2 106 -4 235 -4 l235 0 0 1460 0 1460 -1500 0 -1500 0 0 -148z"/>
<path d="M0 1196 l0 -1196 638 0 637 1 -55 23 c-227 95 -437 242 -627 439
-362 377 -494 733 -379 1017 84 206 253 347 590 494 l29 12 -27 26 c-83 77
-373 214 -791 374 -13 6 -15 -121 -15 -1190z"/>
<path d="M1770 2228 c-36 -39 -98 -98 -138 -131 -81 -66 -261 -188 -334 -227
l-47 -24 -43 34 c-73 59 -262 200 -268 200 -3 0 -11 -15 -18 -33 -7 -19 -23
-40 -37 -47 -25 -13 -34 -30 -15 -30 11 0 195 -147 229 -183 31 -34 27 -46
-59 -192 -98 -164 -214 -317 -315 -414 -72 -69 -79 -79 -50 -67 144 60 322
241 454 460 36 59 68 109 72 111 7 5 361 -347 367 -364 4 -13 -50 -118 -111
-215 -86 -138 -202 -281 -284 -348 -52 -43 -50 -47 10 -17 142 73 277 215 406
430 l49 80 88 -98 c115 -129 284 -332 284 -341 0 -12 -129 -214 -173 -271 -23
-30 -68 -81 -99 -113 -32 -32 -54 -58 -50 -58 5 0 40 22 79 49 83 58 154 135
230 249 30 45 58 82 61 82 20 0 229 -316 324 -490 37 -69 68 -122 68 -118 0
45 -199 475 -286 619 -19 31 -34 61 -34 66 0 5 42 36 93 68 109 70 240 199
281 276 l30 54 -61 -61 c-33 -34 -94 -87 -134 -117 -71 -53 -236 -157 -248
-157 -3 1 -39 50 -80 111 -40 61 -111 158 -158 216 -46 58 -82 111 -80 117 3
6 31 29 63 51 148 101 243 199 317 326 15 25 27 49 27 52 0 3 -37 -31 -82 -77
-88 -88 -207 -181 -318 -247 l-68 -40 -192 193 c-163 164 -189 194 -175 203
239 143 407 309 482 478 7 15 11 27 10 26 -1 0 -31 -32 -67 -71z"/>
<path d="M2460 100 c0 -7 3 -10 7 -7 3 4 3 10 0 14 -4 3 -7 0 -7 -7z"/>
</g>
</svg>
