<?xml version="1.0" encoding="UTF-8" standalone="no"?>
<!-- Created with Inkscape (http://www.inkscape.org/) -->

<svg
   xmlns:dc="http://purl.org/dc/elements/1.1/"
   xmlns:cc="http://creativecommons.org/ns#"
   xmlns:rdf="http://www.w3.org/1999/02/22-rdf-syntax-ns#"
   xmlns:svg="http://www.w3.org/2000/svg"
   xmlns="http://www.w3.org/2000/svg"
   xmlns:sodipodi="http://sodipodi.sourceforge.net/DTD/sodipodi-0.dtd"
   xmlns:inkscape="http://www.inkscape.org/namespaces/inkscape"
   width="744.09448819"
   height="1052.3622047"
   id="svg2"
   version="1.1"
   inkscape:version="0.48.4 r9939"
   sodipodi:docname="New document 1">
  <defs
     id="defs4" />
  <sodipodi:namedview
     id="base"
     pagecolor="#ffffff"
     bordercolor="#666666"
     borderopacity="1.0"
     inkscape:pageopacity="0.0"
     inkscape:pageshadow="2"
     inkscape:zoom="0.98994949"
     inkscape:cx="375"
     inkscape:cy="520"
     inkscape:document-units="px"
     inkscape:current-layer="g3015"
     showgrid="false"
     inkscape:window-width="1200"
     inkscape:window-height="1900"
     inkscape:window-x="2558"
     inkscape:window-y="-3"
     inkscape:window-maximized="1" />
  <metadata
     id="metadata7">
    <rdf:RDF>
      <cc:Work
         rdf:about="">
        <dc:format>image/svg+xml</dc:format>
        <dc:type
           rdf:resource="http://purl.org/dc/dcmitype/StillImage" />
        <dc:title></dc:title>
      </cc:Work>
    </rdf:RDF>
  </metadata>
  <g
     inkscape:label="Layer 1"
     inkscape:groupmode="layer"
     id="layer1">
    <g
       id="g3015"
       transform="translate(-265.71429,-694.28572)">
      <path
         style="fill:#fdfdfd"
         d="m 279.78571,766.64789 0,-60 174.5,0 174.5,0 0,60 0,60 -174.5,0 -174.5,0 0,-60 z"
         id="path3031"
         inkscape:connector-curvature="0" />
      <path
         style="fill:#e3e3e3"
         d="m 279.78571,777.2475 c 0,-16.46679 0,-32.93359 0,-49.40038 12.63841,1.70461 23.82534,8.96502 35.0316,14.62702 -0.88675,-9.10231 -18.32451,-12.14926 -26.16355,-17.87424 -8.55791,-0.5849 -11.57928,-14.10192 -7.39183,-17.95201 39.69036,0.23367 79.40749,-0.60578 119.076,0.69619 8.225,6.94308 2.23646,24.69031 4.49556,35.66074 -0.14722,27.38487 1.00777,54.94081 -1.47635,82.2145 -12.0642,4.46549 -26.21772,1.25483 -29.88591,-12.57143 -3.701,-3.75491 -8.03228,-20.03934 -12.64447,-9.55479 -1.85117,5.1636 -18.36756,14.95203 -10.12262,3.54205 2.51382,-5.10581 13.49405,-11.96562 6.53811,-17.15165 -4.52578,-6.64882 -12.03268,-14.62196 -16.22748,-2.40921 -2.09554,6.6449 -23.24029,17.09444 -11.37468,4.04255 6.87283,-8.01102 17.96635,-19.48185 4.27841,-26.81757 -8.40486,-8.24598 -12.56489,12.77744 -21.6503,15.44198 -7.77182,6.87578 -8.9421,-0.78457 -2.3249,-4.74878 3.28307,-6.24928 16.51106,-15.60219 11.78163,-22.19287 -8.0185,-10.60235 -21.1482,0.0553 -27.58277,7.11135 -10.79114,13.04303 -2.33441,31.14967 7.42698,42.04489 7.90256,10.05888 19.19758,16.44223 29.58359,23.32165 -9.6653,2.62916 -20.50944,0.89383 -30.70046,1.3704 -6.88885,0 -13.77771,0 -20.66656,0 0,-16.4668 0,-32.93359 0,-49.40039 z m 105.27505,40.65039 c 9.22577,-25.32369 5.03695,-55.81713 -13.60588,-75.91039 -8.84134,-11.76978 -25.6698,-22.46932 -40.03942,-13.48294 -2.37623,3.36245 -14.66024,8.88366 -9.4642,12.69743 6.83477,9.19358 16.33395,5.29194 23.06081,-1.94483 3.2594,-3.92552 15.22151,-13.24456 9.19665,-1.96395 -1.07038,7.87807 -19.15408,12.40898 -14.84613,18.29653 3.74047,3.77932 7.48096,7.55864 11.22144,11.33795 6.41964,-2.50471 16.5133,-16.85849 19.8526,-11.64266 -4.03097,10.2353 -23.00193,16.23868 -8.24493,26.87196 5.5705,14.01956 19.79455,-13.20768 21.91505,-3.71264 -4.61734,9.56195 -20.69663,13.53953 -9.41681,24.86301 3.64823,2.47054 6.35356,25.00027 10.37082,14.59053 z m 47.96609,7.57456 c -17.04082,-2.63776 -27.90132,-21.60323 -22.89837,-37.84938 3.48323,-12.36063 16.09584,-22.20958 29.15723,-20.97541 -0.16413,11.22134 -0.32706,24.11748 9.35202,31.82936 5.36856,4.9883 8.15733,19.04825 4.38446,24.03777 -6.18532,3.0519 -13.17209,4.23511 -19.99534,2.95766 z m 31.82996,-0.57611 c -13.41274,-5.44421 -12.262,-27.00303 1.91587,-30.45825 13.39101,-4.29478 12.47512,15.87698 20.01303,22.55804 -3.90247,7.7571 -13.88329,12.30459 -21.9289,7.90021 z m 46.15514,0.63945 c -20.25255,-3.87925 -36.30883,-24.04452 -33.54194,-44.90444 1.37225,-21.83909 22.64238,-40.51122 44.6362,-37.45103 25.19066,0.21453 44.65045,28.53492 37.08888,52.37352 -5.80517,19.86307 -27.49177,34.66186 -48.18314,29.98195 z m 53.27376,-0.052 c -9.21305,-3.135 -17.99947,-10.22474 -7.53352,-18.17572 7.35183,-12.13593 6.92309,-27.13204 3.38054,-40.39124 10.08339,-9.52527 29.22077,-4.42911 37.87073,5.53733 9.84309,9.29785 10.60265,25.4142 5.57186,37.19372 -6.58071,12.2964 -20.46254,18.38094 -34.00662,16.74906 -1.78495,-0.12132 -3.58056,-0.3189 -5.28299,-0.91315 z m 40.10654,-2.83211 c -8.31251,-7.31165 7.45405,-18.32805 5.70419,-28.8495 5.57187,-5.98485 19.57716,4.08286 18.61834,12.98609 1.85099,13.07901 -13.21241,22.16281 -24.32253,15.86341 z M 449.64164,797.30972 c -8.9057,-9.97997 -9.82025,-26.21387 -3.87134,-37.84857 5.90862,-9.94736 20.4899,-20.82801 31.62014,-14.35777 0.19035,6.31981 8.58812,11.47643 3.31138,17.24426 -5.27565,8.34166 -5.85408,18.20725 -6.41611,27.77088 -10.17429,-2.48201 -17.20111,14.40049 -24.64407,7.1912 l 0,0 z m 107.14407,-35.62524 c -3.78178,-9.43701 -18.85181,-12.24875 -15.73207,-23.84236 -2.42308,-9.32302 9.44957,-5.93168 14.34516,-3.15319 8.73435,2.89429 25.59077,23.39922 10.58574,25.87654 -2.66466,0.66575 -6.9208,3.60177 -9.19883,1.11901 z m -75.1063,-10.78659 c -5.57664,-12.00967 -3.50172,-27.8522 7.45919,-36.27096 15.33929,-13.89087 43.33722,-5.94846 48.08087,14.58919 3.66839,7.92307 0.57063,18.82578 -9.61411,12.1779 -14.47944,-3.98704 -29.85951,2.38285 -40.58936,12.10492 -2.33488,3.28968 -4.13539,-1.18215 -5.33659,-2.60105 z m -26.60886,-8.87808 c -4.5029,-12.37675 8.74292,-24.87915 20.95116,-19.61133 3.1355,3.90319 1.93064,16.95104 -3.64172,18.15381 -5.47362,0.11457 -13.08251,4.65244 -17.30944,1.45752 z"
         id="path3029"
         inkscape:connector-curvature="0" />
      <path
         style="fill:#cbead5"
         d="m 279.78571,777.21411 0,-49.43378 2.27556,0.41264 c 5.3656,0.97297 29.88209,12.28295 31.18085,14.38439 0.81653,1.32117 3.54359,0.19461 3.54359,-1.46388 0,-2.19524 -4.78662,-5.28503 -19.48667,-12.57876 -18.81344,-9.33467 -17.51333,-8.17603 -17.51333,-15.60759 l 0,-6.27924 61.39301,0 c 55.05991,0 61.45563,0.16317 62,1.58179 0.79298,2.06647 0.79298,114.76995 0,116.83642 -0.49592,1.29236 -2.38667,1.58179 -10.33333,1.58179 -8.58496,0 -9.72991,-0.20536 -9.75671,-1.75 -0.0167,-0.9625 0.33177,-2.21414 0.77437,-2.78142 0.4426,-0.56727 1.94738,-4.97444 3.34394,-9.79369 6.20627,-21.41655 3.72552,-40.97821 -7.62422,-60.1197 -4.96796,-8.37854 -17.60868,-21.43935 -23.76765,-24.55753 -6.50392,-3.29282 -15.44444,-3.79236 -21.32421,-1.19146 -4.93231,2.1818 -14.7052,10.62903 -14.7052,12.7105 0,1.27792 10.21167,9.4833 11.80206,9.4833 1.61593,0 12.61265,-7.60511 17.84487,-12.34116 5.49239,-4.97154 6.35307,-5.42271 6.35307,-3.33029 0,2.80801 -6.25286,10.57164 -12.24276,15.20078 -3.44148,2.65966 -6.45704,4.99091 -6.70125,5.18055 -0.85085,0.66074 12.39782,13.29012 13.9418,13.29012 0.85557,0 5.25465,-2.925 9.77575,-6.5 4.52109,-3.575 8.47691,-6.5 8.7907,-6.5 0.31379,0 0.26032,1.0125 -0.11883,2.25 -0.99683,3.2535 -6.69344,9.9793 -10.85038,12.81066 -1.96975,1.34164 -3.58444,2.8149 -3.5882,3.27393 -0.0123,1.50143 10.46345,15.56251 11.63316,15.61462 0.627,0.0279 3.95908,-2.08671 7.40464,-4.69921 3.44555,-2.6125 6.84847,-5.18408 7.56204,-5.71463 2.17038,-1.6137 2.63427,0.098 0.92325,3.40677 -0.88965,1.7204 -4.2599,5.17997 -7.48944,7.68793 l -5.87189,4.55994 5.41644,11.15499 c 2.97904,6.13525 5.67413,12.73 5.9891,14.655 0.57246,3.49876 0.57202,3.49923 -1.25073,1.31822 -1.00287,-1.19998 -4.51914,-6.48748 -7.81394,-11.75 -3.29479,-5.26252 -6.44479,-9.54259 -7,-9.51127 -0.5552,0.0313 -2.6932,2.26782 -4.7511,4.96999 -2.0579,2.70218 -5.13722,5.63473 -6.84293,6.51679 -3.2858,1.69916 -4.98904,1.22697 -3.38006,-0.93706 0.53055,-0.71357 3.10213,-4.11649 5.71463,-7.56204 2.6125,-3.44556 4.75,-7.10359 4.75,-8.12896 0,-1.47382 -11.23413,-15.91567 -12.3806,-15.91567 -0.15783,0 -1.91872,2.36924 -3.91309,5.26498 -4.30603,6.25216 -9.10242,11.04432 -13.13461,13.12304 -4.80447,2.47685 -4.87876,0.79228 -0.20761,-4.70792 7.29387,-8.58841 12.71886,-17.66357 11.68351,-19.54469 -0.49506,-0.89948 -3.44843,-4.11041 -6.56304,-7.13541 l -5.66293,-5.5 -1.66082,2.46483 c -7.76987,11.53137 -16.61199,20.03517 -20.83226,20.03517 -2.07503,0 -1.64448,-0.85475 3.07422,-6.10308 4.74314,-5.27551 10.71966,-13.87677 12.77195,-18.38105 1.21225,-2.6606 1.06753,-2.97325 -3.07996,-6.65383 -2.39359,-2.12412 -4.98406,-3.86204 -5.75661,-3.86204 -2.2798,0 -11.50885,4.96913 -16.00674,8.61839 -5.18068,4.20323 -7.90892,8.53418 -9.3076,14.77538 -1.37061,6.11594 0.62423,14.67468 5.26346,22.58253 4.58801,7.82054 19.8736,22.84265 27.52591,27.05144 13.19156,7.25539 13.98519,6.90154 -15.56318,6.93899 l -26.25,0.0333 0,-49.43378 z"
         id="path3027"
         inkscape:connector-curvature="0" />
      <path
         style="fill:#b7e2c5"
         d="m 279.78571,777.64789 c 0,-47.12716 0.0712,-49 1.86246,-49 2.60875,0 14.98316,5.22231 24.99689,10.54932 7.94632,4.2272 8.54747,4.39248 10.27842,2.826 1.72672,-1.56266 2.08095,-1.49575 5.82781,1.10083 2.19414,1.52054 4.50459,3.38545 5.13433,4.14424 0.62974,0.75878 2.10718,1.37961 3.28321,1.37961 2.17199,0 12.05103,-6.36783 18.86234,-12.1583 2.06001,-1.75126 4.05353,-2.87604 4.43006,-2.49952 1.20205,1.20206 -5.05339,8.97213 -11.21428,13.92961 -3.27868,2.63825 -6.07465,5.12162 -6.21327,5.5186 -0.13862,0.39698 2.70707,3.81482 6.32375,7.5952 7.61047,7.95493 6.72587,8.0054 18.06523,-1.03066 3.68875,-2.93947 6.88765,-5.16366 7.10867,-4.94265 1.05588,1.05589 -3.28923,6.91219 -8.71345,11.74394 l -6.02579,5.36759 5.60852,7.7381 c 3.08468,4.25595 6.30902,7.73809 7.16521,7.73809 0.85618,0 4.67831,-2.27761 8.49361,-5.06135 3.81531,-2.78374 7.15099,-4.84728 7.41262,-4.58564 1.31088,1.31088 -5.39305,8.63982 -11.69532,12.78567 l -2.49102,1.63868 4.28211,8.57659 c 4.61744,9.24824 7.51423,16.68304 6.78447,17.4128 -0.25013,0.25013 -3.36451,-4.04352 -6.92084,-9.54145 -3.55634,-5.49792 -6.89547,-10.26161 -7.42028,-10.58596 -0.52482,-0.32435 -2.85556,1.66514 -5.17942,4.4211 -4.30737,5.10829 -8.69801,8.62092 -9.62149,7.69744 -0.28217,-0.28216 1.98188,-3.99041 5.03121,-8.24055 3.04933,-4.25013 5.54424,-8.17736 5.54424,-8.72716 0,-1.46427 -12.25171,-15.79017 -13.50398,-15.79017 -0.58564,0 -1.92676,1.4625 -2.98026,3.25 -3.99616,6.7804 -16.51576,18.1162 -16.51576,14.95411 0,-0.46599 2.44756,-3.9187 5.43903,-7.6727 2.99146,-3.75399 6.47393,-8.77624 7.73881,-11.16057 l 2.29978,-4.33513 -6.45992,-6.51785 c -3.55296,-3.58482 -6.96319,-6.51786 -7.5783,-6.51786 -0.6151,0 -1.58137,1.0125 -2.14725,2.25 -1.84152,4.02708 -9.28008,12.72871 -13.48499,15.77474 -5.63865,4.08461 -7.85885,3.946 -4.4006,-0.27474 6.32445,-7.71887 11.94791,-15.53157 13.82426,-19.20611 l 2.02012,-3.9561 -3.87547,-3.33279 c -6.4656,-5.56023 -6.49056,-5.56342 -14.02658,-1.7917 -25.42191,12.72347 -25.51673,34.75392 -0.25627,59.5367 4.20451,4.125 10.2912,9.03816 13.52597,10.91813 13.54571,7.87242 15.2264,7.04603 -14.36859,7.06502 l -26.25,0.0168 0,-49 z m 105.37448,42.73725 c 7.72771,-20.53064 7.44492,-42.34626 -0.78188,-60.31595 -6.13131,-13.39254 -19.06212,-28.05765 -29.04698,-32.94278 -11.41609,-5.58538 -22.19324,-3.18809 -32.12193,7.14526 l -5.46378,5.68647 -4.37832,-3.14427 c -2.40807,-1.72935 -10.94905,-6.35782 -18.97995,-10.28548 l -14.60164,-7.14122 0,-6.36964 0,-6.36964 61.39301,0 c 55.05991,0 61.45563,0.16317 62,1.58179 0.79298,2.06647 0.79298,114.76995 0,116.83642 -0.49684,1.29476 -2.4006,1.58179 -10.49141,1.58179 l -9.88441,0 2.35729,-6.26275 z"
         id="path3025"
         inkscape:connector-curvature="0" />
      <path
         style="fill:#98d6ac"
         d="m 279.78571,777.53948 0,-49.10841 2.75,0.68052 c 4.16374,1.03037 23.11423,9.4255 27.43881,12.15549 2.09615,1.32324 3.81119,2.80784 3.81119,3.2991 0,0.49126 -2.8125,2.22277 -6.25,3.84781 -13.09954,6.19265 -19.75,14.95193 -19.75,26.0126 0,10.62947 4.83252,19.92461 16.93865,32.58074 7.09197,7.41418 12.19445,11.28334 21.56135,16.3498 l 6,3.24533 -26.25,0.0227 -26.25,0.0227 0,-49.10841 z m 104,48.4771 c 0,-0.34722 1.33366,-4.51554 2.96369,-9.26293 1.63002,-4.74738 3.49377,-12.94504 4.14166,-18.21701 2.80022,-22.78591 -6.11293,-46.2768 -23.93961,-63.09359 -8.14639,-7.68489 -14.6083,-11.05489 -22.25867,-11.60826 -7.42596,-0.53715 -13.19174,2.03533 -20.77599,9.26948 -3.19655,3.04899 -6.06944,5.54362 -6.38421,5.54362 -0.31477,0 -2.88509,-1.52316 -5.71184,-3.38479 -2.82675,-1.86163 -11.19096,-6.24913 -18.58714,-9.75 l -13.4476,-6.36521 -1.4e-4,-6.25 -1.5e-4,-6.25 61.5,0 61.5,0 0,60 0,60 -9.5,0 c -5.225,0 -9.5,-0.28409 -9.5,-0.63131 z m -12.57959,-19.77254 c -3.14634,-4.72788 -6.26687,-8.59615 -6.93452,-8.59615 -0.66764,0 -2.47899,1.82554 -4.02522,4.05675 -2.53726,3.66126 -7.32112,7.94325 -8.87426,7.94325 -0.33266,0 1.7096,-3.32915 4.53836,-7.39811 3.91726,-5.6347 4.99649,-7.95871 4.52771,-9.75 -0.33851,-1.29354 -3.43698,-5.44335 -6.88549,-9.22181 l -6.27001,-6.86992 -5.49849,7.34765 c -5.08643,6.79702 -11.62157,12.60244 -12.8282,11.39581 -0.28133,-0.28133 0.42374,-1.52223 1.56683,-2.75756 4.20152,-4.54057 12.26288,-17.16423 12.26288,-19.20301 0,-1.90945 -11.50133,-14.54305 -13.23964,-14.54305 -0.37721,0 -2.44508,2.5875 -4.59527,5.75 -5.47326,8.05009 -16.16509,17.80671 -16.16509,14.75113 0,-0.27437 2.41394,-3.49028 5.36431,-7.14647 2.95037,-3.65619 6.66287,-9.09488 8.25,-12.08599 l 2.88569,-5.43838 -5.25866,-4.75232 c -5.03832,-4.55321 -5.18167,-4.822 -3.42126,-6.41515 2.51449,-2.27558 2.78004,-2.20502 8.79614,2.33718 2.91388,2.2 5.69751,4 6.18584,4 1.48572,0 12.74731,-7.59809 17.12942,-11.55707 2.26676,-2.04787 4.38358,-3.46121 4.70404,-3.14074 1.31768,1.31767 -7.37162,10.73771 -15.13552,16.40835 l -3,2.19116 7.19445,7.23497 c 8.29819,8.34494 7.94122,8.3385 18.34751,0.33104 3.19337,-2.45724 6.09075,-4.46771 6.43862,-4.46771 1.73495,0 -3.60964,6.72107 -8.23058,10.35033 -2.8875,2.26783 -5.25,4.49828 -5.25,4.95656 0,1.35917 11.38832,16.69311 12.39775,16.69311 1.26962,0 10.16758,-5.77133 11.64783,-7.55492 0.65962,-0.7948 1.82958,-1.44508 2.59992,-1.44508 2.38172,0 -1.17225,4.4024 -7.27143,9.00733 l -5.4823,4.13918 3.0827,5.46225 c 3.55662,6.30199 7.31509,15.43502 6.6327,16.1174 -0.25638,0.25638 -3.04042,-3.40213 -6.18676,-8.13001 z"
         id="path3023"
         inkscape:connector-curvature="0" />
      <path
         style="fill:#6fc68b"
         d="m 279.78571,777.5805 0,-49.06739 2.25,0.70045 c 3.76165,1.17104 21.99457,9.32271 26.17226,11.70123 2.15724,1.22821 4.08,2.71387 4.27279,3.30149 0.1928,0.58761 -2.00336,2.16261 -4.88035,3.5 -16.76412,7.79291 -23.86061,20.83968 -19.27137,35.43007 4.7078,14.96733 22.16233,33.48826 38.59214,40.94999 l 5.36453,2.43634 -26.25,0.0576 -26.25,0.0576 0,-49.06739 z m 104,48.7398 c 0,-0.18018 1.07574,-2.99268 2.39054,-6.25 6.48943,-16.07717 7.37047,-36.26031 2.26651,-51.92241 -5.55939,-17.05967 -20.35937,-35.89429 -33.00785,-42.00617 -11.43669,-5.52632 -22.8505,-2.97003 -33.05401,7.40295 l -4.90482,4.98627 -4.35013,-2.99297 c -4.91514,-3.3817 -30.17332,-15.88817 -32.09024,-15.88933 -0.87172,-5.2e-4 -1.25,-1.96782 -1.25,-6.50075 l 0,-6.5 61.5,0 61.5,0 0,60 0,60 -9.5,0 c -5.225,0 -9.5,-0.14742 -9.5,-0.32759 z m -13.9184,-23.16456 c -2.42723,-3.57932 -4.9175,-6.50785 -5.53392,-6.50785 -0.61643,0 -2.80055,2.25 -4.85362,5 -5.26112,7.04707 -6.44501,6.22935 -1.67225,-1.15504 2.188,-3.38527 3.97369,-6.64777 3.96818,-7.25 -0.016,-1.75172 -12.94671,-16.59496 -14.45671,-16.59496 -0.75359,0 -2.41162,1.6875 -3.6845,3.75 -2.85374,4.624 -8.55905,11.02457 -10.98372,12.32222 -0.99409,0.53202 1.1046,-3.32773 4.66375,-8.57722 3.55916,-5.24949 6.47119,-10.24179 6.47119,-11.094 0,-1.62935 -10.28244,-12.94661 -13.16393,-14.48873 -1.36629,-0.73122 -2.70908,0.57121 -7.20728,6.99062 -4.73461,6.75679 -10.02745,12.09711 -11.98957,12.09711 -0.30361,0 1.95094,-3.4875 5.01012,-7.75 3.05918,-4.2625 6.47481,-9.53767 7.59029,-11.72261 l 2.02815,-3.97261 -5.18766,-4.57374 c -4.9351,-4.35107 -5.09975,-4.6533 -3.38204,-6.20781 1.69072,-1.53008 2.17923,-1.35457 7.6771,2.75826 5.81785,4.3522 5.90004,4.37791 8.99815,2.81479 1.71967,-0.86764 6.38917,-4.0112 10.37667,-6.9857 3.9875,-2.97449 7.25,-5.12942 7.25,-4.78874 0,1.6954 -4.53,6.58143 -9.70895,10.47201 -3.18508,2.39273 -6.19647,4.68962 -6.69198,5.10421 -0.92487,0.77383 13.01041,15.85194 14.65046,15.85194 0.79738,0 5.63902,-3.10399 13.65631,-8.7551 4.8087,-3.38949 0.38177,2.48125 -5.19525,6.88963 -2.86583,2.26531 -5.21059,4.62425 -5.21059,5.2421 0,1.47719 10.65562,16.34768 12.18319,17.00229 0.65075,0.27887 3.91325,-1.25749 7.25,-3.41414 7.57155,-4.89372 7.95552,-3.45556 0.56681,2.12297 -3.025,2.2839 -5.5,4.55971 -5.5,5.05736 0,0.49765 1.59982,4.08163 3.55515,7.9644 1.95533,3.88278 3.41665,7.47508 3.24738,7.98289 -0.16927,0.50782 -2.29369,-2.00523 -4.72093,-5.58455 z"
         id="path3021"
         inkscape:connector-curvature="0" />
      <path
         style="fill:#4ab86d"
         d="m 392.78571,825.64789 c -5.225,-0.33944 -9.02072,-0.70331 -8.43493,-0.80858 2.85359,-0.51286 8.43493,-23.55405 8.43493,-34.82155 0,-31.41139 -26.2903,-67.36594 -49.2609,-67.36908 -7.37037,-10e-4 -13.28698,2.73438 -20.56277,9.50667 l -5.53403,5.15105 -6.57115,-3.99917 c -7.21402,-4.39041 -28.66382,-14.72751 -29.83567,-14.37843 -0.40452,0.1205 -0.86945,-2.59341 -1.0332,-6.03091 l -0.29771,-6.25 61.29771,0 61.29772,0 0,60 c 0,33 0,59.91386 0,59.80858 0,-0.10527 -4.275,-0.46914 -9.5,-0.80858 z m -113,-48.5 c 0,-26.675 0.36,-48.5 0.8,-48.5 0.44,0 1.2275,0.40204 1.75,0.89341 0.5225,0.49138 5.41537,2.74426 10.87305,5.0064 10.39426,4.30829 18.60555,8.69052 18.53596,9.89234 -0.0225,0.38932 -2.27982,1.75805 -5.01618,3.04162 -7.64838,3.58771 -14.13121,9.25629 -17.43342,15.24377 -5.71152,10.35595 -3.56435,21.6969 6.87252,36.29935 2.40702,3.36771 6.85091,8.45919 9.8753,11.3144 5.76421,5.44176 17.82531,13.71691 21.24277,14.5747 1.1,0.2761 -9.1375,0.55421 -22.75,0.61801 l -24.75,0.116 0,-48.5 z m 88.45244,22.43137 c -2.0202,-2.91515 -3.34618,-3.93091 -4.67709,-3.58288 -1.41379,0.36972 -1.72408,0.0653 -1.29892,-1.27424 0.59272,-1.86748 -0.77538,-3.9456 -8.77177,-13.32425 -2.6964,-3.1625 -5.50897,-5.75 -6.25015,-5.75 -0.74118,0 -2.96265,2.43317 -4.9366,5.40705 -1.97395,2.97388 -4.33438,6.01138 -5.24541,6.75 -1.90771,1.54669 -1.87865,1.48773 3.28159,-6.65705 5.36517,-8.46822 5.36219,-8.49121 -2.12925,-16.43252 -3.6669,-3.88711 -7.50694,-7.06748 -8.53342,-7.06748 -1.10936,0 -2.95141,1.72377 -4.54162,4.25 -3.41606,5.4268 -8.47397,11.75 -9.39879,11.75 -0.39284,0 1.70747,-3.68097 4.66737,-8.17993 2.95989,-4.49896 5.38162,-9.19384 5.38162,-10.43305 0,-1.45298 -1.5771,-3.54544 -4.44096,-5.89215 -2.73876,-2.24421 -4.23093,-4.18634 -3.89301,-5.06695 0.81334,-2.11954 1.66231,-1.81688 7.21475,2.57208 2.78321,2.2 5.86593,4 6.85048,4 0.98455,0 4.862,-2.06079 8.61656,-4.57952 3.75456,-2.51874 7.06205,-4.34394 7.34999,-4.056 0.28795,0.28794 -2.45127,2.68095 -6.08714,5.31779 -3.63587,2.63685 -6.606,5.47454 -6.6003,6.306 0.006,0.83145 3.3666,4.79761 7.46865,8.8137 8.16852,7.99733 7.74227,7.91262 14.82856,2.94716 1.54416,-1.08202 3.03332,-1.74157 3.30923,-1.46565 0.27591,0.27591 -1.3108,1.7875 -3.52602,3.35909 -2.21522,1.57158 -4.23217,3.36629 -4.48211,3.98824 -0.71273,1.77354 11.61845,18.24488 13.70871,18.31138 1.36862,0.0435 1.6568,0.56375 1.16707,2.10677 -0.38316,1.20725 0.0111,3.0584 0.95971,4.50618 1.678,2.56095 3.75564,7.44486 3.16708,7.44486 -0.18659,0 -1.60805,-1.83088 -3.15881,-4.06863 z"
         id="path3019"
         inkscape:connector-curvature="0" />
      <path
         style="fill:#2cad55"
         d="m 279.78571,777.14789 c 0,-28.72727 0.37371,-48.5 0.91667,-48.5 0.50416,0 1.06987,0.45961 1.25712,1.02136 0.18725,0.56175 5.33726,3.178 11.44446,5.81388 6.1072,2.63587 12.54791,5.70672 14.31268,6.82409 l 3.20867,2.03159 -5.70102,2.88445 c -12.02603,6.08461 -19.66939,16.48003 -19.7701,26.88849 -0.0979,10.11501 6.19526,22.33838 17.68593,34.352 7.07468,7.39666 18.9671,15.8197 23.22804,16.45172 1.60465,0.23801 -8.21995,0.50018 -21.83245,0.58259 l -24.75,0.14983 0,-48.5 z"
         id="path3038" />
      <path
         style="fill:#2cad55"
         d="m 384.84128,824.99601 c 1.95787,-0.52847 6.47074,-14.21273 8.02965,-24.34812 3.64952,-23.72753 -6.45949,-50.33775 -25.86505,-68.08527 -15.46047,-14.1395 -31.5561,-14.34835 -45.05603,-0.58463 l -4.33587,4.42058 -5.66413,-3.43643 c -8.5919,-5.2127 -28.15088,-14.39083 -30.01538,-14.08484 -1.35948,0.22311 -1.701,-0.826 -1.94648,-5.97941 l -0.29771,-6.25 61.54771,0 c 40.36515,0 61.54772,0.34417 61.54772,1 0,0.55 -0.45,1 -1,1 -1.60421,0 -1.3556,115.68984 0.25,116.33772 0.6875,0.27741 -3.25,0.48771 -8.75,0.46733 -5.5,-0.0204 -9.29999,-0.226 -8.44443,-0.45693 z"
         id="path3036" />
      <path
         style="fill:#2cad55"
         d="m 362.82278,792.2454 c -2.25153,-4.32705 -5.69973,-7.89701 -8.896,-11.53646 -2.36141,-2.39366 -4.57162,-5.14077 -7.67371,-6.59581 -1.86456,-1.56692 -1.786,-4.40051 -3.79184,-6.00457 -3.56615,-4.05763 -7.43095,-7.97432 -11.99088,-10.91345 -1.71297,-0.69345 -4.13734,-0.63126 -3.88979,-3.21065 -1.7572,-3.62104 -5.52661,-5.57168 -7.74941,-8.81813 -0.32063,-2.0793 3.00229,0.47125 3.87916,1.02068 2.86512,2.01703 5.56202,4.60523 9.04598,5.46088 2.73234,0.20433 2.24269,3.98019 4.41527,5.332 3.92826,4.45535 8.05401,8.81432 12.80168,12.4074 2.78182,0.67783 2.84173,3.56549 4.24529,5.5514 3.36082,5.20259 6.87268,10.35466 10.98956,14.99308 1.93446,0.50002 2.29167,4.92814 0.0829,4.52655 -0.70527,-0.55902 -1.13821,-1.3937 -1.46821,-2.21292 z"
         id="path3017"
         inkscape:connector-curvature="0" />
    </g>
  </g>
</svg>
